<svg width="41" height="40" viewBox="0 0 41 40" fill="none" xmlns="http://www.w3.org/2000/svg">
<path fill-rule="evenodd" clip-rule="evenodd" d="M21.7667 25.4644V11.1333H19.2333V25.4467L14.3592 19.7821L12.4389 21.4288L20.5025 30.8072L28.5965 21.4339L26.6763 19.7796L21.7667 25.4644ZM20.5 1C10.0069 1 1.5 9.50693 1.5 20C1.5 30.4931 10.0069 39 20.5 39C30.9931 39 39.5 30.4931 39.5 20C39.5 9.50693 30.9931 1 20.5 1ZM20.5 36.4667C11.4205 36.4667 4.03333 29.0795 4.03333 20C4.03333 10.9205 11.4205 3.53333 20.5 3.53333C29.5795 3.53333 36.9667 10.9205 36.9667 20C36.9667 29.0795 29.5795 36.4667 20.5 36.4667Z" fill="black"/>
</svg>
