<svg width="41" height="40" viewBox="0 0 41 40" fill="none" xmlns="http://www.w3.org/2000/svg">
<path d="M3.875 8.125V29.5H37.125V8.125H3.875ZM3.875 5.75H37.125C37.7549 5.75 38.359 6.00022 38.8044 6.44562C39.2498 6.89102 39.5 7.49511 39.5 8.125V31.875C39.5 32.5049 39.2498 33.109 38.8044 33.5544C38.359 33.9998 37.7549 34.25 37.125 34.25H3.875C3.24511 34.25 2.64102 33.9998 2.19562 33.5544C1.75022 33.109 1.5 32.5049 1.5 31.875V8.125C1.5 7.49511 1.75022 6.89102 2.19562 6.44562C2.64102 6.00022 3.24511 5.75 3.875 5.75Z" fill="black"/>
<path fill-rule="evenodd" clip-rule="evenodd" d="M25.25 20H34.75V27.125H25.25V20Z" fill="black"/>
</svg>
