<svg width="41" height="40" viewBox="0 0 41 40" fill="none" xmlns="http://www.w3.org/2000/svg">
<path fill-rule="evenodd" clip-rule="evenodd" d="M13.6919 6.46774V27.9227C12.4423 26.3767 10.5337 25.3838 8.39671 25.3838C4.64281 25.3838 1.58862 28.438 1.58862 32.1919C1.58862 35.9458 4.64281 39 8.39671 39C12.1506 39 15.2048 35.9458 15.2048 32.1919V7.69226L37.8984 2.8675V23.3154C36.6493 21.7694 34.7412 20.7765 32.6032 20.7765C28.8493 20.7765 25.7952 23.8307 25.7952 27.5846C25.7952 31.3385 28.8493 34.3927 32.6032 34.3927C36.3571 34.3927 39.4113 31.3385 39.4113 27.5846V1L13.6919 6.46774ZM8.39671 37.4871C5.4768 37.4871 3.10153 35.1114 3.10153 32.1919C3.10153 29.2715 5.4768 26.8967 8.39671 26.8967C11.3166 26.8967 13.6919 29.2715 13.6919 32.1919C13.6919 35.1109 11.3157 37.4871 8.39671 37.4871ZM32.6032 32.8798C29.6833 32.8798 27.3081 30.5045 27.3081 27.5846C27.3081 24.6657 29.6833 22.2895 32.6032 22.2895C35.5232 22.2895 37.8984 24.6657 37.8984 27.5846C37.8984 30.5055 35.5222 32.8798 32.6032 32.8798Z" fill="black"/>
</svg>
