<svg width="41" height="40" viewBox="0 0 41 40" fill="none" xmlns="http://www.w3.org/2000/svg">
<path d="M20.5 1C16.7422 1 13.0687 2.11433 9.94417 4.20208C6.81964 6.28982 4.38436 9.25722 2.9463 12.729C1.50823 16.2008 1.13197 20.0211 1.86509 23.7067C2.59821 27.3923 4.40778 30.7778 7.06498 33.435C9.72218 36.0922 13.1077 37.9018 16.7933 38.6349C20.4789 39.368 24.2992 38.9918 27.771 37.5537C31.2428 36.1156 34.2102 33.6804 36.2979 30.5558C38.3857 27.4313 39.5 23.7578 39.5 20C39.5 14.9609 37.4982 10.1282 33.935 6.56497C30.3718 3.00178 25.5391 1 20.5 1V1ZM20.5 29.5C18.6211 29.5 16.7844 28.9428 15.2221 27.899C13.6598 26.8551 12.4422 25.3714 11.7232 23.6355C11.0041 21.8996 10.816 19.9895 11.1825 18.1466C11.5491 16.3038 12.4539 14.6111 13.7825 13.2825C15.1111 11.9539 16.8038 11.0491 18.6466 10.6825C20.4895 10.316 22.3996 10.5041 24.1355 11.2231C25.8714 11.9422 27.3551 13.1598 28.399 14.7221C29.4428 16.2843 30 18.1211 30 20C30 22.5196 28.9991 24.9359 27.2175 26.7175C25.4359 28.4991 23.0196 29.5 20.5 29.5Z" fill="black"/>
</svg>
