<svg width="148" height="44" viewBox="0 0 148 44" fill="none" xmlns="http://www.w3.org/2000/svg">
<path d="M1.04407 22.1293C1.04407 34.0352 10.9629 43.8705 22.97 43.8705C34.977 43.8705 44.8959 34.0352 44.8959 22.1293C44.8959 10.2235 34.977 0.517578 22.97 0.517578C10.9629 0.517578 1.04407 10.2235 1.04407 22.1293ZM31.0617 32.2235C25.9718 29.1176 19.4462 28.3411 11.8765 30.0235C10.0494 30.2823 9.78833 27.694 11.3545 27.4352C19.7072 25.494 26.7548 26.3999 32.4973 29.894C33.933 30.7999 32.4973 32.9999 31.0617 32.2235ZM33.2804 26.3999C27.4074 22.7764 18.4021 21.7411 11.485 23.8117C9.26629 24.4588 8.48322 21.094 10.5714 20.5764C18.5326 18.247 28.321 19.4117 35.1076 23.5529C36.9347 24.7176 35.1076 27.5646 33.2804 26.3999ZM10.4409 17.2117C8.2222 17.9882 6.78657 14.2352 9.26629 13.3293C16.9665 10.9999 30.0176 11.3882 38.1093 16.1764C40.328 17.3411 38.2398 20.9646 35.8906 19.6705C28.843 15.5293 17.097 15.1411 10.4409 17.2117ZM59.9047 28.9882C57.686 28.9882 55.5979 28.2117 53.7707 26.3999C53.6402 26.3999 53.6402 26.5293 53.6402 26.5293L51.552 28.9882C51.4215 29.1176 51.4215 29.247 51.552 29.3764C53.9012 31.447 56.7725 32.4823 59.9047 32.4823C64.3421 32.4823 67.0829 30.0235 67.0829 26.3999C67.0829 23.294 65.1252 21.6117 60.5573 20.447C56.7725 19.5411 56.1199 18.894 56.1199 17.5999C56.1199 16.3058 57.425 15.5293 59.1217 15.5293C60.8183 15.5293 62.3844 16.1764 64.2116 17.4705C64.2116 17.4705 64.3421 17.5999 64.4726 17.5999C64.6031 17.5999 64.6031 17.4705 64.6031 17.4705L66.4303 14.8823C66.5608 14.7529 66.5608 14.7529 66.4303 14.6235C64.3421 12.9411 61.8624 12.0352 59.1217 12.0352C55.0758 12.0352 52.2046 14.494 52.2046 17.9882C52.2046 21.7411 54.8148 22.9058 58.9911 23.9411C62.6455 24.7176 63.1675 25.494 63.1675 26.7882C63.1675 28.2117 61.8624 28.9882 59.9047 28.9882ZM72.3033 19.0235V17.3411C72.3033 17.2117 72.1728 17.0823 72.0423 17.0823H68.649C68.5185 17.0823 68.388 17.2117 68.388 17.3411V36.3646C68.388 36.494 68.5185 36.6235 68.649 36.6235H72.0423C72.1728 36.6235 72.3033 36.494 72.3033 36.3646V30.4117C73.6084 31.8352 75.0441 32.4823 77.0017 32.4823C80.5255 32.4823 84.0493 29.7646 84.0493 24.5882C84.0493 19.4117 80.5255 16.8235 77.0017 16.8235C75.0441 16.8235 73.6084 17.4705 72.3033 19.0235ZM76.2187 29.1176C73.8695 29.1176 72.1728 27.1764 72.1728 24.5882C72.1728 21.9999 73.8695 20.1882 76.2187 20.1882C78.5679 20.1882 80.134 21.9999 80.134 24.5882C80.134 27.1764 78.5679 29.1176 76.2187 29.1176ZM85.0934 24.7176C85.0934 29.1176 88.6172 32.4823 93.1852 32.4823C97.7531 32.4823 101.277 28.9882 101.277 24.5882C101.277 20.1882 97.8836 16.8235 93.3157 16.8235C88.7478 16.8235 85.0934 20.3176 85.0934 24.7176ZM89.0088 24.5882C89.0088 21.9999 90.7054 20.1882 93.1852 20.1882C95.6649 20.1882 97.492 22.1293 97.492 24.7176C97.492 27.3058 95.7954 29.1176 93.3157 29.1176C90.8359 29.1176 89.0088 27.1764 89.0088 24.5882ZM107.28 17.0823V13.3293C107.28 13.1999 107.28 13.0705 107.15 13.0705H103.757C103.626 13.0705 103.496 13.1999 103.496 13.3293V17.0823H101.799C101.668 17.0823 101.538 17.2117 101.538 17.3411V20.1882C101.538 20.3176 101.668 20.447 101.799 20.447H103.496V27.9529C103.496 30.9293 104.931 32.4823 107.933 32.4823C109.108 32.4823 110.282 32.2235 111.196 31.7058C111.326 31.7058 111.326 31.5764 111.326 31.447V28.7293C111.326 28.5999 111.326 28.4705 111.196 28.4705H110.935C110.282 28.8588 109.499 28.9882 108.847 28.9882C107.802 28.9882 107.28 28.4705 107.28 27.4352V20.447H111.196C111.326 20.447 111.457 20.3176 111.457 20.1882V17.3411C111.457 17.2117 111.326 17.0823 111.196 17.0823H107.28ZM124.116 16.694C124.116 15.2705 124.638 14.7529 125.813 14.7529C126.466 14.7529 127.118 14.7529 127.771 15.0117H127.901C127.901 15.0117 128.032 14.8823 128.032 14.7529V12.0352C128.032 11.9058 128.032 11.7764 127.901 11.7764C127.249 11.5176 126.335 11.3882 125.03 11.3882C121.898 11.3882 120.332 13.1999 120.332 16.4352V17.0823H118.635C118.504 17.0823 118.374 17.2117 118.374 17.3411V20.1882C118.374 20.3176 118.504 20.447 118.635 20.447H120.332V31.9646C120.332 32.094 120.462 32.2235 120.593 32.2235H123.986C124.116 32.2235 124.116 32.094 124.116 31.9646V20.447H127.379L132.208 31.9646C131.686 33.1293 131.164 33.3882 130.381 33.3882C129.728 33.3882 129.076 33.2588 128.423 32.8705H128.293L128.162 32.9999L126.988 35.4588C126.988 35.5882 126.988 35.847 127.118 35.847C128.293 36.494 129.337 36.7529 130.642 36.7529C133.122 36.7529 134.557 35.5882 135.732 32.4823L141.605 17.4705V17.2117C141.605 17.0823 141.474 17.0823 141.344 17.0823H137.82C137.69 17.0823 137.69 17.2117 137.69 17.3411L134.035 27.4352L130.12 17.3411C130.12 17.2117 129.989 17.0823 129.859 17.0823H124.116V16.694ZM113.284 17.0823C113.153 17.0823 113.023 17.2117 113.023 17.3411V31.9646C113.023 32.094 113.153 32.2235 113.284 32.2235H116.677C116.808 32.2235 116.808 32.094 116.808 31.9646V17.3411C116.808 17.2117 116.808 17.0823 116.677 17.0823H113.284ZM112.501 12.8117C112.501 14.1058 113.675 15.2705 114.981 15.2705C116.286 15.2705 117.33 14.1058 117.33 12.8117C117.33 11.5176 116.286 10.4823 114.981 10.4823C113.675 10.4823 112.501 11.5176 112.501 12.8117ZM144.476 21.7411C145.781 21.7411 146.956 20.7058 146.956 19.4117C146.956 18.1176 145.781 17.0823 144.476 17.0823C143.171 17.0823 142.127 18.1176 142.127 19.4117C142.127 20.7058 143.171 21.7411 144.476 21.7411ZM144.476 17.3411C145.651 17.3411 146.695 18.247 146.695 19.4117C146.695 20.5764 145.651 21.4823 144.476 21.4823C143.302 21.4823 142.388 20.5764 142.388 19.4117C142.388 18.247 143.302 17.3411 144.476 17.3411ZM144.998 19.6705C145.39 19.5411 145.651 19.2823 145.651 18.894C145.651 18.3764 145.129 18.1176 144.607 18.1176H143.563V20.5764H144.085V19.7999H144.607L145.129 20.5764H145.781L144.998 19.6705ZM144.607 18.5058C144.868 18.5058 145.129 18.6352 145.129 18.894C145.129 19.1529 144.868 19.2823 144.607 19.2823H144.085V18.5058H144.607Z" fill="white"/>
</svg>
